<?xml version="1.0" standalone="no"?>
<!DOCTYPE svg PUBLIC "-//W3C//DTD SVG 20010904//EN"
 "http://www.w3.org/TR/2001/REC-SVG-20010904/DTD/svg10.dtd">
<svg version="1.0" xmlns="http://www.w3.org/2000/svg"
 width="103.000000pt" height="75.000000pt" viewBox="0 0 103.000000 75.000000"
 preserveAspectRatio="xMidYMid meet">

<g transform="translate(0.000000,75.000000) scale(0.100000,-0.100000)"
fill="#000000" stroke="none">
<path d="M49 725 c-72 -39 -55 -151 26 -171 77 -19 146 82 97 142 -35 44 -78
54 -123 29z"/>
<path d="M280 645 l0 -85 375 0 375 0 0 85 0 85 -375 0 -375 0 0 -85z"/>
<path d="M33 436 c-22 -19 -28 -32 -28 -66 0 -55 37 -90 95 -90 30 0 43 6 64
31 35 41 34 83 -3 120 -38 37 -88 39 -128 5z"/>
<path d="M280 370 l0 -80 375 0 375 0 0 80 0 80 -375 0 -375 0 0 -80z"/>
<path d="M70 183 c-50 -18 -81 -83 -59 -125 32 -64 102 -77 150 -29 48 48 31
128 -32 150 -35 12 -37 12 -59 4z"/>
<path d="M280 100 l0 -90 375 0 375 0 0 90 0 90 -375 0 -375 0 0 -90z"/>
</g>
</svg>
